<svg xmlns="http://www.w3.org/2000/svg" xmlns:xlink="http://www.w3.org/1999/xlink" width="139" height="139.001" viewBox="0 0 139 139.001"><defs><clipPath id="a"><circle cx="69.5" cy="69.5" r="69.5" transform="translate(575 12184.34)" fill="#fff"/></clipPath><clipPath id="b"><rect width="117.769" height="131.457" fill="none"/></clipPath></defs><g transform="translate(-575 -12848.647)"><circle cx="69.5" cy="69.5" r="69.5" transform="translate(575 12848.648)" fill="#fff"/><g transform="translate(0 664.308)" clip-path="url(#a)"><g transform="translate(585.115 12202.703)"><g clip-path="url(#b)"><path d="M65.491,15.42A14.436,14.436,0,1,1,79.927,29.856,14.436,14.436,0,0,1,65.491,15.42" fill="#d6b4b4"/><path d="M65.491,15.42A14.436,14.436,0,1,1,79.927,29.856,14.436,14.436,0,0,1,65.491,15.42Z" fill="none" stroke="#655f61" stroke-linecap="round" stroke-linejoin="round" stroke-width="1.969"/><path d="M85.79,41.854c4.051-5.446,4.355-14.331,1.333-22.264C80.09,1.129,54.975-4.661,42.735,7.142a18.724,18.724,0,0,0-8.418,7,30.1,30.1,0,0,0-4.231,10.209c-1.4,6.081-1.424,12.679,1.333,18.421a6.416,6.416,0,0,1,5.239-4.2c4.995-3.723,10.21-7.72,12.678-13.324a32.262,32.262,0,0,0,11.957,7.607c2.622,1.023,5.438,1.839,8.225,1.408A32.727,32.727,0,0,0,79.8,37.634a21.521,21.521,0,0,1,5.993,4.22" fill="#d6b4b4"/><path d="M101.258,121.674C100.021,110.93,98.011,89.94,87.33,83.042a55.623,55.623,0,0,0-17.113-7.689H47.553c-4.243,1.089-12.77,4.33-17.113,7.689-10.757,8.32-12.69,27.888-13.928,38.632" fill="#655f61"/><path d="M101.258,121.674C100.021,110.93,98.011,89.94,87.33,83.042a55.623,55.623,0,0,0-17.113-7.689H47.553c-4.243,1.089-12.77,4.33-17.113,7.689-10.757,8.32-12.69,27.888-13.928,38.632" fill="none" stroke="#655f61" stroke-linecap="round" stroke-linejoin="round" stroke-width="1.969"/><path d="M80.242,38.137c3.292.486,5.723,3.37,5.5,8-.193,3.93-2.428,7.668-7.729,8.873-1.818,4.54-7.242,8.686-11.443,9.656,0,1.877.121,3.163.077,5.264-.093,4.413,2.575,5.2,5.438,6.636-2.086,3.508-9.447,5.6-13.867,5.513-4.184-.078-10.8-1.371-13.157-4.7,0,0,5.518-1.834,5.483-7.281-.011-1.756-.027-3.477-.087-5.428-4.2-.97-9.626-5.116-11.443-9.656-5.3-1.2-7.536-4.943-7.729-8.873-.227-4.629,2.368-7.021,5.786-7.83,4.859-2.764,9.755-8.415,12.233-13.119,4.072,5.027,13.111,9.313,20.894,9.1a34.128,34.128,0,0,0,10.048,3.855" fill="#ffebe9"/><path d="M80.078,38.63c3.292.486,5.887,2.877,5.66,7.506-.193,3.931-2.428,7.668-7.729,8.874-1.818,4.54-7.242,8.686-11.443,9.656,0,1.876-.075,3.168.077,5.264.29,3.994,2.247,5.04,5.11,6.472-2.086,3.507-8.955,5.76-13.374,5.677-4.185-.079-10.8-1.7-13.158-5.032a7.256,7.256,0,0,0,5.319-6.953c.021-1.757-.027-3.477-.087-5.428-4.2-.97-9.626-5.116-11.443-9.656-5.3-1.206-7.536-4.943-7.729-8.874-.227-4.629,2.368-7.02,5.66-7.506" fill="none" stroke="#655f61" stroke-linecap="round" stroke-linejoin="round" stroke-width="1.969"/><path d="M56.984,93.622a1.5,1.5,0,1,1,1.5,1.5,1.5,1.5,0,0,1-1.5-1.5" fill="#fff"/><path d="M56.984,102.988a1.5,1.5,0,1,1,1.5,1.5,1.5,1.5,0,0,1-1.5-1.5" fill="#fff"/><path d="M46.749,21.13C50.479,29.192,62.561,35.283,70.1,34.3" fill="none" stroke="#655f61" stroke-linecap="round" stroke-linejoin="round" stroke-width="1.969"/><path d="M33.286,38.822c6.493.152,13.864-9,15.99-13.421" fill="none" stroke="#655f61" stroke-linecap="round" stroke-linejoin="round" stroke-width="1.969"/><path d="M39.845,8.362c-5.9,3.9-9.055,10.936-10.21,17.915-.928,5.608-.694,11.635,2.069,16.6" fill="none" stroke="#655f61" stroke-linecap="round" stroke-linejoin="round" stroke-width="1.969"/><path d="M43.116,6.724C55.1-3.769,79.272.329,87.122,19.59c3.2,7.86,2.719,16.818-1.332,22.263" fill="none" stroke="#655f61" stroke-linecap="round" stroke-linejoin="round" stroke-width="1.969"/><path d="M62.941,25.863c4.048,8.914,13.611,12.725,20.135,11.848" fill="none" stroke="#655f61" stroke-linecap="round" stroke-linejoin="round" stroke-width="1.969"/><path d="M37.569,37.892a58.455,58.455,0,0,1-3.224,16.549c-.782,2.209-1.669,4.756-.476,6.773.818,1.384,2.4,2.094,3.563,3.206a1.857,1.857,0,0,1,.492.666c.335.917-.621,1.75-1.431,2.293s-1.7,1.506-1.215,2.353a1.883,1.883,0,0,0,.694.618,13.5,13.5,0,0,0,2.295,1.122" fill="none" stroke="#655f61" stroke-linecap="round" stroke-linejoin="round" stroke-width="1.969"/><path d="M79.159,37.892a58.263,58.263,0,0,0,3.069,16.549c.783,2.209,1.669,4.756.477,6.773-.818,1.384-2.4,2.094-3.563,3.206a1.831,1.831,0,0,0-.491.666c-.337.917.619,1.75,1.43,2.293s1.7,1.506,1.214,2.353a1.873,1.873,0,0,1-.693.618,13.55,13.55,0,0,1-2.3,1.122" fill="none" stroke="#655f61" stroke-linecap="round" stroke-linejoin="round" stroke-width="1.969"/><line x1="1.298" y2="3.478" transform="translate(97.757 35.195)" fill="none" stroke="#655f61" stroke-linecap="round" stroke-linejoin="round" stroke-width="1.969"/><line x1="2.373" y2="2.749" transform="translate(104.52 38.856)" fill="none" stroke="#655f61" stroke-linecap="round" stroke-linejoin="round" stroke-width="1.969"/><line y1="1.327" x2="3.534" transform="translate(108.715 45.887)" fill="none" stroke="#655f61" stroke-linecap="round" stroke-linejoin="round" stroke-width="1.969"/><line x2="1.298" y2="3.478" transform="translate(19.448 35.195)" fill="none" stroke="#655f61" stroke-linecap="round" stroke-linejoin="round" stroke-width="1.969"/><line x2="2.373" y2="2.749" transform="translate(11.61 38.856)" fill="none" stroke="#655f61" stroke-linecap="round" stroke-linejoin="round" stroke-width="1.969"/><line x1="3.534" y1="1.327" transform="translate(6.253 45.887)" fill="none" stroke="#655f61" stroke-linecap="round" stroke-linejoin="round" stroke-width="1.969"/><path d="M58.162,44.675c.072,1.029-.851,1.883-.962,2.908A3.861,3.861,0,0,0,58,49.91" fill="none" stroke="#655f61" stroke-linecap="round" stroke-linejoin="round" stroke-width="1.641"/><path d="M54.358,53.634c1.367,8.654,7.355,8.809,8.614,0Z" fill="#fff"/><path d="M54.358,53.634c1.367,8.654,7.355,8.809,8.614,0Z" fill="none" stroke="#655f61" stroke-linecap="round" stroke-linejoin="round" stroke-width="1.641"/><path d="M64.971,41.2A2.391,2.391,0,1,1,67.362,43.6,2.391,2.391,0,0,1,64.971,41.2" fill="#655f61"/><path d="M47.365,41.2A2.391,2.391,0,1,1,49.756,43.6,2.391,2.391,0,0,1,47.365,41.2" fill="#655f61"/><path d="M16.153,86.593c-3.8-2.723-4.857-4.363-8.663-6.911-1.5-1.006-4.125-2.4-5.518-3.534C-.052,74.5,1.32,72.424,3.528,73.482c1.145.548,5.819,3.269,6.389,3.047.656-.256-.893-1.879-1.65-2.531-1.752-1.509-5.541-4.853-6.1-5.474-1.737-1.928-.053-3.976,2-2.423s5.731,4.805,7.911,6.16c.3.185,1.067-.033.266-1a76.305,76.305,0,0,0-5.775-6.6c-1.067-.985-3.026-2.8-1.274-3.9.731-.463,2.056.589,2.8,1.2,2.576,2.115,6.743,8.35,7.482,7.78.471-.362-.369-1.535-.719-2.016-1.438-1.971-2.938-4.2-4.376-6.175-1.845-2.529.183-4.294,2.8-1.53A52.183,52.183,0,0,1,19.26,68c.688,1.047,1.492,2.5,2.509,2.238,1.105-.281.989-.842,1.371-2.09s.715-2.946,1.965-4.007c1.3-1.1,3.609-.6,2.981,1.937-.579,2.337-1.434,5.93-1.284,8.391a29.907,29.907,0,0,1,.136,4.567c-.246,2.6-.2,4.028-2.086,6.709-1.034,5.691,6.913,34.727,5.323,40.348-1.7,6-13.272,7.577-13.272-6.658,0-6.745-.059-23.794-.75-32.84" fill="#ffebe9"/><path d="M16.153,86.593c-3.8-2.723-4.857-4.363-8.663-6.911-1.5-1.006-4.125-2.4-5.518-3.534C-.052,74.5,1.32,72.424,3.528,73.482c1.145.548,5.819,3.269,6.389,3.047.656-.256-.893-1.879-1.65-2.531-1.752-1.509-5.541-4.853-6.1-5.474-1.737-1.928-.053-3.976,2-2.423s5.731,4.805,7.911,6.16c.3.185,1.067-.033.266-1a76.305,76.305,0,0,0-5.775-6.6c-1.067-.985-3.026-2.8-1.274-3.9.731-.463,2.056.589,2.8,1.2,2.576,2.115,6.743,8.35,7.482,7.78.471-.362-.369-1.535-.719-2.016-1.438-1.971-2.938-4.2-4.376-6.175-1.845-2.529.183-4.294,2.8-1.53A52.183,52.183,0,0,1,19.26,68c.688,1.047,1.492,2.5,2.509,2.238,1.105-.281.989-.842,1.371-2.09s.715-2.946,1.965-4.007c1.3-1.1,3.609-.6,2.981,1.937-.579,2.337-1.434,5.93-1.284,8.391a29.907,29.907,0,0,1,.136,4.567c-.246,2.6-.2,4.028-2.086,6.709-1.034,5.691,6.913,34.727,5.323,40.348-1.7,6-13.272,7.577-13.272-6.658C16.9,112.688,16.844,95.639,16.153,86.593Z" fill="none" stroke="#655f61" stroke-linecap="round" stroke-linejoin="round" stroke-width="1.969"/><path d="M101.617,86.593c3.8-2.723,4.856-4.363,8.662-6.911,1.5-1.006,4.125-2.4,5.519-3.534,2.023-1.643.652-3.724-1.556-2.666-1.146.548-5.819,3.269-6.389,3.047-.657-.256.892-1.879,1.649-2.531,1.752-1.509,5.541-4.853,6.1-5.474,1.737-1.928.052-3.976-2-2.423s-5.73,4.805-7.91,6.16c-.3.185-1.068-.033-.267-1a76.3,76.3,0,0,1,5.775-6.6c1.067-.985,3.026-2.8,1.274-3.9-.731-.463-2.056.589-2.8,1.2-2.577,2.115-6.744,8.35-7.483,7.78-.471-.362.369-1.535.719-2.016,1.438-1.971,2.938-4.2,4.376-6.175,1.846-2.529-.182-4.294-2.8-1.53A52.249,52.249,0,0,0,98.509,68c-.688,1.047-1.492,2.5-2.509,2.238-1.1-.281-.989-.842-1.371-2.09s-.715-2.946-1.965-4.007c-1.3-1.1-3.609-.6-2.981,1.937.579,2.337,1.435,5.93,1.284,8.391a29.907,29.907,0,0,0-.136,4.567c.246,2.6.2,4.028,2.086,6.709,1.034,5.691-6.913,34.727-5.323,40.348,1.7,6,13.273,7.577,13.273-6.658,0-6.745.058-23.794.75-32.84" fill="#ffebe9"/><path d="M101.617,86.593c3.8-2.723,4.856-4.363,8.662-6.911,1.5-1.006,4.125-2.4,5.519-3.534,2.023-1.643.652-3.724-1.556-2.666-1.146.548-5.819,3.269-6.389,3.047-.657-.256.892-1.879,1.649-2.531,1.752-1.509,5.541-4.853,6.1-5.474,1.737-1.928.052-3.976-2-2.423s-5.73,4.805-7.91,6.16c-.3.185-1.068-.033-.267-1a76.3,76.3,0,0,1,5.775-6.6c1.067-.985,3.026-2.8,1.274-3.9-.731-.463-2.056.589-2.8,1.2-2.577,2.115-6.744,8.35-7.483,7.78-.471-.362.369-1.535.719-2.016,1.438-1.971,2.938-4.2,4.376-6.175,1.846-2.529-.182-4.294-2.8-1.53A52.249,52.249,0,0,0,98.509,68c-.688,1.047-1.492,2.5-2.509,2.238-1.1-.281-.989-.842-1.371-2.09s-.715-2.946-1.965-4.007c-1.3-1.1-3.609-.6-2.981,1.937.579,2.337,1.435,5.93,1.284,8.391a29.907,29.907,0,0,0-.136,4.567c.246,2.6.2,4.028,2.086,6.709,1.034,5.691-6.913,34.727-5.323,40.348,1.7,6,13.273,7.577,13.273-6.658C100.867,112.688,100.925,95.639,101.617,86.593Z" fill="none" stroke="#655f61" stroke-linecap="round" stroke-linejoin="round" stroke-width="1.969"/></g></g></g></g></svg>