<svg xmlns="http://www.w3.org/2000/svg" xmlns:xlink="http://www.w3.org/1999/xlink" width="139" height="139" viewBox="0 0 139 139"><defs><clipPath id="a"><path d="M69.5,0A69.5,69.5,0,1,0,139,69.5,69.5,69.5,0,0,0,69.5,0Z" fill="none"/></clipPath></defs><g transform="translate(67 -18705)"><path d="M69.5,0A69.5,69.5,0,1,1,0,69.5,69.5,69.5,0,0,1,69.5,0Z" transform="translate(-67 18705)" fill="#fff"/><g transform="translate(-67 18705)"><g clip-path="url(#a)"><path d="M46.845,67.428a19.373,19.373,0,0,1,3.183,8.789,8.446,8.446,0,0,1-.065,2.637,5.474,5.474,0,0,1-2.419,3.451,9.144,9.144,0,0,0,6.744-1.169,4.922,4.922,0,0,0,6.289-.94,1,1,0,0,0,.3-.857,1.054,1.054,0,0,0-.374-.48,27.241,27.241,0,0,0-2.418-1.724A24.093,24.093,0,0,1,51.023,70.4a4.775,4.775,0,0,0-.947-1.218c-.879-.7-2.272-.654-3.231-1.75" fill="#a69083"/><path d="M91.929,67.02c-.289.145-.578.289-1.33.605a4.913,4.913,0,0,0-2.178,1.87c-.36.569-.6,1.207-.942,1.787A11.411,11.411,0,0,1,85.3,73.731a17.629,17.629,0,0,1-5.944,4.145c-.388.134-.836.284-.989.666a1.338,1.338,0,0,0-.048.585q.083,1.247.166,2.492a9.309,9.309,0,0,0,7.6,1.209,1.525,1.525,0,0,1,.568-.092,1.725,1.725,0,0,1,.365.1,3.949,3.949,0,0,0,4.145-1.182,1.377,1.377,0,0,0,.324-.588,1.812,1.812,0,0,0-.3-1.131,11.091,11.091,0,0,1-.937-7.216l-.007-.275.13-.824Z" fill="#a69083"/><path d="M113.45,134.989c-1.273-11.054-2.566-32.4-14.33-38.735-4.521-2.432-13.242-6.79-17.607-7.91H58.195c-4.366,1.12-13.087,5.478-17.607,7.91-11.765,6.331-13.058,27.681-14.331,38.735l41.675,14.584Z" fill="#dbcdbd"/><path d="M113.45,134.989c-1.273-11.054-2.566-32.4-14.33-38.735-4.521-2.432-13.242-6.79-17.607-7.91H58.195c-4.366,1.12-13.087,5.478-17.607,7.91-11.765,6.331-13.058,27.681-14.331,38.735l41.675,14.584Z" fill="none" stroke="#655f61" stroke-linecap="round" stroke-linejoin="round" stroke-width="2.026"/><path d="M90.477,50.728c3.387.5,7.238,2.792,7.005,7.554-.2,4.044-2.5,7.89-7.952,9.13-1.87,4.671-7.451,10.118-11.774,11.117,0,1.93.03,5.452-.089,7.61-.047.842.117,1.134,3.063,2.607C78.584,92.355,69,100.5,69,100.5S58.049,92.5,55.627,89.072c0,0,5.506-.972,5.472-2.258-.047-1.806.141-6.109.079-8.117-4.323-1-8.721-4.925-10.592-9.6-5.453-1.24-8.766-5.423-8.964-9.467-.234-4.763,1.592-8.574,5.109-9.407,1.49-.847.711-20.915,9.5-20.523a9.334,9.334,0,0,1,2.97-1.81c1.908-.855,3.915-1.73,6-1.586a12.9,12.9,0,0,1,1.955.34l5.906,1.346c5.1,1.163,7.274,1.987,12.9,8.453,3.818,4.39,4.511,14.282,4.511,14.282" fill="#ffebe9"/><path d="M52.6,23.015a62.111,62.111,0,0,0-7.308,5.113A19.538,19.538,0,0,0,41.956,31.4a15.155,15.155,0,0,0-2.089,3.963A22.172,22.172,0,0,0,39.275,48.7c.658,2.441,1.739,4.775,2.3,7.437a10.227,10.227,0,0,1,3.538-5.372,9.9,9.9,0,0,0,1.377-1.151,7.293,7.293,0,0,0,1.294-3.855c.32-2.1.8-4.169,1.286-6.236q.332-1.41.659-2.821a11.314,11.314,0,0,1,1.714-4.411,4.066,4.066,0,0,1,4.2-1.627c.528.316-.025.046-.025.046l.156.1.262-.1.209-.053.471-.261a5.629,5.629,0,0,0,.731-.576c.333-.261.664-.523,1.19-1.01,1.894-1.355,4.339-1.6,6.659-1.8,1.485-.128,3.1-.224,4.391.695,5.723-.417,11.322,2.72,14.878,7.223s6.445,16.95,3.74,27.258c.815-.306,5.195-.413,7.539-7.557.655-1.995,1.257,5.931,1.359,6.3.955-2.347,5.336-14.106,4.492-18.366A35.574,35.574,0,0,0,91.9,24.455c-5.829-5.812-11.183-10.364-22.589-10.824-7.021-.283-14.034,4.08-16.71,9.384" fill="#a69083"/><path d="M47.276,50.56c-3.387.548-6.057,3.244-5.823,8.463.2,4.432,3.68,8.646,9.133,10.005A15.142,15.142,0,0,0,61.178,78.35c.062,2.2.246,5.711.09,7.685-.211,2.663-5.3,3.091-5.3,3.091,1.642,1.955,12.758,11.582,12.758,11.582S81.948,90.453,82.587,89.276c-3.035-1.128-4.636-.981-4.751-3.426-.111-2.366-.077-5.384-.08-7.5A16.671,16.671,0,0,0,88.517,68.184c5.454-1.359,8.766-4.729,9.041-9.2a6.638,6.638,0,0,0-1.48-4.378" fill="none" stroke="#655f61" stroke-linecap="round" stroke-linejoin="round" stroke-width="2.026"/><path d="M47.723,65.12a1.015,1.015,0,1,1,1.015,1.015,1.015,1.015,0,0,1-1.015-1.015" fill="#655f61"/><path d="M53.757,21.326C61.088,8.074,92.392,8.8,101.716,42.1c1.668,5.958-2.036,9.918-3.854,15.833" fill="none" stroke="#655f61" stroke-linecap="round" stroke-linejoin="round" stroke-width="2.026"/><path d="M92.333,66.815a17.455,17.455,0,0,0-2.318,7.165,11.649,11.649,0,0,0,.1,3.952,5.679,5.679,0,0,0,2.027,3.321" fill="none" stroke="#655f61" stroke-linecap="round" stroke-linejoin="round" stroke-width="2.026"/><path d="M63.224,26.5c3.451-5.849,17.9-3.595,21.769,3.2" fill="none" stroke="#655f61" stroke-linecap="round" stroke-linejoin="round" stroke-width="2.026"/><path d="M69.647,27.4c18.052-.109,24.7,24.238,18.869,33.94" fill="none" stroke="#655f61" stroke-linecap="round" stroke-linejoin="round" stroke-width="2.026"/><path d="M57.64,28.512c-.088-5.021,4.562-8.933,8.9-9.591" fill="none" stroke="#655f61" stroke-linecap="round" stroke-linejoin="round" stroke-width="2.026"/><path d="M55.611,30.453a3.506,3.506,0,0,0-3.139.805,7.95,7.95,0,0,0-1.94,2.729,22.861,22.861,0,0,0-2.069,6.824c-.267,1.937-.287,3.912-.732,5.815a7.5,7.5,0,0,1-3.071,4.816" fill="none" stroke="#655f61" stroke-linecap="round" stroke-linejoin="round" stroke-width="2.026"/><path d="M50.567,24.38C43.5,28.111,38.06,35,38.737,43.043a74.816,74.816,0,0,0,2.749,12.88" fill="none" stroke="#655f61" stroke-linecap="round" stroke-linejoin="round" stroke-width="2.026"/><path d="M46.586,67.473s6.576,12.5.63,14.691" fill="none" stroke="#655f61" stroke-linecap="round" stroke-linejoin="round" stroke-width="2.026"/><path d="M82.625,76.913a6.927,6.927,0,0,0,4.843,6.282" fill="none" stroke="#655f61" stroke-linecap="round" stroke-linejoin="round" stroke-width="2.026"/><path d="M56.825,76.969c-.2.982-1,4.519-4.389,5.361" fill="none" stroke="#655f61" stroke-linecap="round" stroke-linejoin="round" stroke-width="2.026"/><path d="M68.934,56.838c.074,1.059-.876,1.937-.99,2.992a3.98,3.98,0,0,0,.824,2.394" fill="none" stroke="#655f61" stroke-linecap="round" stroke-linejoin="round" stroke-width="1.688"/><path d="M61.61,40.184a6.048,6.048,0,0,0-6.9,1.272" fill="none" stroke="#655f61" stroke-linecap="round" stroke-linejoin="round" stroke-width="1.688"/><path d="M76.177,40.184a6.048,6.048,0,0,1,6.9,1.272" fill="none" stroke="#655f61" stroke-linecap="round" stroke-linejoin="round" stroke-width="1.688"/><path d="M64.373,66c1.321,3.805,7.38,4.3,9.352.339" fill="none" stroke="#655f61" stroke-linecap="round" stroke-linejoin="round" stroke-width="1.688"/><path d="M75.634,53.209a2.46,2.46,0,1,1,2.46,2.46,2.46,2.46,0,0,1-2.46-2.46" fill="#655f61"/><path d="M57.884,53.209a2.46,2.46,0,1,1,2.46,2.46,2.46,2.46,0,0,1-2.46-2.46" fill="#655f61"/><path d="M88.9,65.12a1.015,1.015,0,1,1,1.015,1.015A1.015,1.015,0,0,1,88.9,65.12" fill="#655f61"/><path d="M8.789,73.922a34.509,34.509,0,0,0,3.624,7.943c.864,1.305,2.794,2.555,4.776,3.766.4,3.631.47,8.54.769,13.408.458,7.427-.2,19.146,4.054,23.515,2.041,2.1,5.527,3.111,8.246,1.684,2.116-1.11,2.939-2.743,3.211-5.116.474-4.123-1.877-11.738-3.638-16.922-2.495-7.349-4.624-14.109-5.793-19.323a31.063,31.063,0,0,0,1.051-9.942c-.108-2.185-1.853-5.943-1.9-6.942-.247-5-.165-9.8-.4-14.457a4.087,4.087,0,0,0-.347-1.73,1.813,1.813,0,0,0-2.668-.6,3.046,3.046,0,0,0-.642,2.341q.06,5.733.118,11.466a2.428,2.428,0,0,1-.491,1.834,1.472,1.472,0,0,1-1.775.078,2.383,2.383,0,0,1-.952-1.605c-1.625-3.757-2.374-6.729-3.823-10.121a4.969,4.969,0,0,0-.95-1.6,1.616,1.616,0,0,0-2.856,1.055,5.3,5.3,0,0,0,.344,2.055c1.139,3.714,2.36,7.446,3.418,11.141-1.364-.024-2.437,1.931-1.7,3.475C8.163,68.7,7.7,70.967,7.947,72.086a12.457,12.457,0,0,0,.842,1.836" transform="translate(3.322 18.182)" fill="#ffebe9"/><path d="M19.435,73c-1.446-.9-2.95-1.945-3.541-3.541a1.98,1.98,0,0,1,.568-2.434c.76-.412,1.681.041,2.422.486l4.669,2.8a3.458,3.458,0,0,1,1.091.879,3.232,3.232,0,0,1,.445,1.741,31.054,31.054,0,0,1-1.051,9.941c1.169,5.215,3.3,11.975,5.793,19.323,1.761,5.185,4.112,12.8,3.639,16.923-.273,2.373-1.1,4.006-3.211,5.116-2.719,1.426-6.206.412-8.247-1.684-4.253-4.369-3.6-16.088-4.053-23.515-.3-4.869-.366-9.778-.769-13.409-1.982-1.21-3.913-2.461-4.777-3.765a34.495,34.495,0,0,1-3.624-7.944" transform="translate(3.322 18.182)" fill="none" stroke="#655f61" stroke-linecap="round" stroke-linejoin="round" stroke-width="1.953"/><path d="M13.7,66.428a2.143,2.143,0,0,0-2.778.248,2.493,2.493,0,0,0-.448,2.173,64.5,64.5,0,0,0,3.879,5.8,2,2,0,0,0,2.16.082,1.942,1.942,0,0,0,.87-1.653,4.946,4.946,0,0,0-.53-1.842C16.459,70.367,14.584,66.989,13.7,66.428Z" transform="translate(3.322 18.182)" fill="none" stroke="#655f61" stroke-linecap="round" stroke-linejoin="round" stroke-width="1.953"/><path d="M12.168,65.849Q10.46,60.278,8.75,54.708a5.3,5.3,0,0,1-.344-2.055A1.616,1.616,0,0,1,11.262,51.6a4.959,4.959,0,0,1,.95,1.6c1.449,3.392,2.2,6.364,3.823,10.121a2.379,2.379,0,0,0,.952,1.6,1.472,1.472,0,0,0,1.775-.077,2.428,2.428,0,0,0,.491-1.834q-.058-5.733-.118-11.466a3.044,3.044,0,0,1,.642-2.341,1.813,1.813,0,0,1,2.668.6,4.087,4.087,0,0,1,.347,1.73c.23,4.66.133,9.157.4,14.457.518,1.724,1.15,3.571,1.7,5.683" transform="translate(3.322 18.182)" fill="none" stroke="#655f61" stroke-linecap="round" stroke-linejoin="round" stroke-width="1.953"/><path d="M10.821,69.659c-.508-.559-1.374-.335-1.987-.02A1.859,1.859,0,0,0,7.9,71.211a4.32,4.32,0,0,0,.915,2.7,12.41,12.41,0,0,0,1.874,2.359c.838.693,1.934,1.238,2.953.234.89-.877.336-2.167-.12-2.872C12.481,72.019,10.821,69.659,10.821,69.659Z" transform="translate(3.322 18.182)" fill="none" stroke="#655f61" stroke-linecap="round" stroke-linejoin="round" stroke-width="1.953"/></g></g></g></svg>